<?xml version="1.0" encoding="UTF-8"?>
<svg width="656px" height="656px" viewBox="0 0 656 656" version="1.1" xmlns="http://www.w3.org/2000/svg" xmlns:xlink="http://www.w3.org/1999/xlink">
    <!-- Generator: Sketch 48.2 (47327) - http://www.bohemiancoding.com/sketch -->
    <title>color</title>
    <desc>Created with Sketch.</desc>
    <defs></defs>
    <g id="Page-1" stroke="none" stroke-width="1" fill="none" fill-rule="evenodd">
        <g id="color">
            <g id="17-scheme" transform="translate(168.000000, 168.000000)">
                <rect id="Rectangle-path" fill="#D3DBDD" fill-rule="nonzero" x="80" y="112" width="160" height="96"></rect>
                <circle id="Oval" stroke="#30241C" stroke-width="4" cx="24" cy="160" r="24"></circle>
                <circle id="Oval" stroke="#30241C" stroke-width="4" cx="296" cy="160" r="24"></circle>
                <circle id="Oval" stroke="#30241C" stroke-width="4" cx="160" cy="296" r="24"></circle>
                <circle id="Oval" fill="#ED4F3E" fill-rule="nonzero" cx="64" cy="296" r="24"></circle>
                <circle id="Oval" fill="#64CDF2" fill-rule="nonzero" cx="256" cy="296" r="24"></circle>
                <circle id="Oval" stroke="#30241C" stroke-width="4" cx="160" cy="24" r="24"></circle>
                <circle id="Oval" fill="#ED4F3E" fill-rule="nonzero" cx="256" cy="24" r="24"></circle>
                <circle id="Oval" fill="#64CDF2" fill-rule="nonzero" cx="64" cy="24" r="24"></circle>
                <g id="Group" transform="translate(149.000000, 64.000000)" stroke="#30241C" stroke-width="4">
                    <path d="M11,48 L11,0" id="Shape"></path>
                    <polyline id="Shape" points="0.332 10.668 11 0 21.668 10.668"></polyline>
                </g>
                <g id="Group" transform="translate(149.000000, 207.000000)" stroke="#30241C" stroke-width="4">
                    <path d="M11,0.998 L11,48.998" id="Shape"></path>
                    <polyline id="Shape" points="21.668 38.332 11 48.998 0.332 38.332"></polyline>
                </g>
                <g id="Group" transform="translate(53.000000, 192.000000)" stroke="#30241C" stroke-width="4">
                    <polyline id="Shape" points="11 63.998 11 0 27 0"></polyline>
                    <polyline id="Shape" points="21.668 53.332 11 63.998 0.332 53.332"></polyline>
                </g>
                <g id="Group" transform="translate(53.000000, 64.000000)" stroke="#30241C" stroke-width="4">
                    <polyline id="Shape" points="11.002 0 11.002 63.998 27.002 63.998"></polyline>
                    <polyline id="Shape" points="21.669 10.666 11.002 0 0.334 10.666"></polyline>
                </g>
                <g id="Group" transform="translate(240.000000, 64.000000)" stroke="#30241C" stroke-width="4">
                    <polyline id="Shape" points="16.001 0 16.001 63.998 0.001 63.998"></polyline>
                    <polyline id="Shape" points="5.333 10.666 16.001 0 26.669 10.666"></polyline>
                </g>
                <g id="Group" transform="translate(240.000000, 192.000000)" stroke="#30241C" stroke-width="4">
                    <polyline id="Shape" points="16 63.998 16 0 0 0"></polyline>
                    <polyline id="Shape" points="5.333 53.332 16 63.998 26.668 53.332"></polyline>
                </g>
                <g id="Group" transform="translate(239.000000, 149.000000)" stroke="#30241C" stroke-width="4">
                    <path d="M0.866,11 L62.533,11" id="Shape"></path>
                    <polyline id="Shape" points="51.866 0.332 62.533 11 51.866 21.668"></polyline>
                </g>
                <g id="Group" transform="translate(18.000000, 149.000000)" stroke="#30241C" stroke-width="4">
                    <path d="M61.864,11 L0.197,11" id="Shape"></path>
                    <polyline id="Shape" points="10.864 21.668 0.197 11 10.864 0.332"></polyline>
                </g>
            </g>
        </g>
    </g>
</svg>