<?xml version="1.0" encoding="UTF-8"?>
<svg width="656px" height="656px" viewBox="0 0 656 656" version="1.1" xmlns="http://www.w3.org/2000/svg" xmlns:xlink="http://www.w3.org/1999/xlink">
    <!-- Generator: Sketch 48.2 (47327) - http://www.bohemiancoding.com/sketch -->
    <title>search</title>
    <desc>Created with Sketch.</desc>
    <defs></defs>
    <g id="Page-1" stroke="none" stroke-width="1" fill="none" fill-rule="evenodd">
        <g id="search">
            <g transform="translate(166.000000, 145.000000)">
                <g id="Group" transform="translate(46.000000, 0.000000)">
                    <rect id="Rectangle-path" fill="#E0004D" fill-rule="nonzero" x="0.342" y="31.75" width="31.385" height="107.25"></rect>
                    <rect id="Rectangle-path" fill="#FFFFFF" fill-rule="nonzero" x="9.516" y="47.25" width="13.037" height="28.047"></rect>
                    <path d="M9.516,119.667 L22.553,119.667" id="Shape" stroke="#30241C" stroke-width="4"></path>
                    <path d="M9.516,110 L22.553,110" id="Shape" stroke="#30241C" stroke-width="4"></path>
                    <path d="M9.516,100.333 L22.553,100.333" id="Shape" stroke="#30241C" stroke-width="4"></path>
                    <rect id="Rectangle-path" fill="#E0004D" fill-rule="nonzero" x="103.493" y="32" width="31.385" height="107"></rect>
                    <rect id="Rectangle-path" fill="#FFFFFF" fill-rule="nonzero" x="112.667" y="47.5" width="13.037" height="12.047"></rect>
                    <path d="M112.667,110 L125.704,110" id="Shape" stroke="#30241C" stroke-width="4"></path>
                    <rect id="Rectangle-path" fill="#64CDF2" fill-rule="nonzero" x="31.727" y="15.75" width="31.385" height="123.25"></rect>
                    <rect id="Rectangle-path" fill="#FFFFFF" fill-rule="nonzero" x="40.9" y="31.25" width="13.037" height="28.047"></rect>
                    <path d="M40.9,119.667 L53.938,119.667" id="Shape" stroke="#30241C" stroke-width="4"></path>
                    <path d="M40.9,110 L53.938,110" id="Shape" stroke="#30241C" stroke-width="4"></path>
                    <path d="M40.9,100.333 L53.938,100.333" id="Shape" stroke="#30241C" stroke-width="4"></path>
                    <rect id="Rectangle-path" fill="#BAC4C6" fill-rule="nonzero" x="195.596" y="47.5" width="31.385" height="91.5"></rect>
                    <rect id="Rectangle-path" fill="#E0004D" fill-rule="nonzero" x="204.77" y="63" width="13.037" height="28.047"></rect>
                    <path d="M217.807,119.667 L204.77,119.667" id="Shape" stroke="#30241C" stroke-width="4"></path>
                    <path d="M217.807,110 L204.77,110" id="Shape" stroke="#30241C" stroke-width="4"></path>
                    <path d="M217.807,100.333 L204.77,100.333" id="Shape" stroke="#30241C" stroke-width="4"></path>
                    <rect id="Rectangle-path" fill="#D3DBDD" fill-rule="nonzero" x="164.211" y="31.5" width="31.385" height="107.5"></rect>
                    <rect id="Rectangle-path" fill="#3AB1CC" fill-rule="nonzero" x="173.385" y="47" width="13.037" height="28.047"></rect>
                    <path d="M186.422,119.667 L173.385,119.667" id="Shape" stroke="#30241C" stroke-width="4"></path>
                    <path d="M186.422,110 L173.385,110" id="Shape" stroke="#30241C" stroke-width="4"></path>
                    <path d="M186.422,100.333 L173.385,100.333" id="Shape" stroke="#30241C" stroke-width="4"></path>
                    <rect id="Rectangle-path" fill="#3AB1CC" fill-rule="nonzero" x="63.111" y="7.75" width="20.19" height="131.25"></rect>
                    <rect id="Rectangle-path" fill="#E0004D" fill-rule="nonzero" x="63.111" y="23.25" width="20.19" height="20.297"></rect>
                    <path d="M63.111,119.667 L83.302,119.667" id="Shape" stroke="#30241C" stroke-width="4"></path>
                    <path d="M63.111,110 L83.302,110" id="Shape" stroke="#30241C" stroke-width="4"></path>
                    <path d="M63.111,100.333 L83.302,100.333" id="Shape" stroke="#30241C" stroke-width="4"></path>
                    <rect id="Rectangle-path" fill="#D3DBDD" fill-rule="nonzero" x="83.302" y="0" width="20.191" height="139"></rect>
                    <rect id="Rectangle-path" fill="#BAC4C6" fill-rule="nonzero" x="83.302" y="15.5" width="20.191" height="28.047"></rect>
                    <path d="M83.302,119.667 L103.493,119.667" id="Shape" stroke="#30241C" stroke-width="4"></path>
                    <path d="M83.302,110 L103.493,110" id="Shape" stroke="#30241C" stroke-width="4"></path>
                    <path d="M83.302,100.333 L103.493,100.333" id="Shape" stroke="#30241C" stroke-width="4"></path>
                    <rect id="Rectangle-path" fill="#3AB1CC" fill-rule="nonzero" x="133.755" y="10.5" width="15.228" height="128.5"></rect>
                    <rect id="Rectangle-path" fill="#D3DBDD" fill-rule="nonzero" x="133.755" y="26" width="15.228" height="17.547"></rect>
                    <path d="M133.755,119.667 L148.982,119.667" id="Shape" stroke="#30241C" stroke-width="4"></path>
                    <path d="M133.755,110 L148.982,110" id="Shape" stroke="#30241C" stroke-width="4"></path>
                    <path d="M133.755,100.333 L148.982,100.333" id="Shape" stroke="#30241C" stroke-width="4"></path>
                    <rect id="Rectangle-path" fill="#E0004D" fill-rule="nonzero" x="148.982" y="0" width="15.229" height="139"></rect>
                    <rect id="Rectangle-path" fill="#64CDF2" fill-rule="nonzero" x="148.982" y="15.5" width="15.229" height="28.047"></rect>
                </g>
                <rect id="Rectangle-path" stroke="#30241C" stroke-width="4" x="0" y="224" width="320" height="96"></rect>
                <rect id="Rectangle-path" fill="#64CDF2" fill-rule="nonzero" x="15.047" y="242" width="8.763" height="8.763"></rect>
                <rect id="Rectangle-path" stroke="#30241C" stroke-width="4" x="33.668" y="242" width="8.764" height="8.763"></rect>
                <rect id="Rectangle-path" stroke="#30241C" stroke-width="4" x="50.464" y="242" width="8.764" height="8.763"></rect>
                <rect id="Rectangle-path" stroke="#30241C" stroke-width="4" x="68.538" y="242" width="8.763" height="8.763"></rect>
                <rect id="Rectangle-path" stroke="#30241C" stroke-width="4" x="85.334" y="242" width="8.763" height="8.763"></rect>
                <rect id="Rectangle-path" stroke="#30241C" stroke-width="4" x="103.956" y="242" width="8.763" height="8.763"></rect>
                <rect id="Rectangle-path" stroke="#30241C" stroke-width="4" x="120.752" y="242" width="8.763" height="8.763"></rect>
                <rect id="Rectangle-path" stroke="#30241C" stroke-width="4" x="138.552" y="242" width="8.764" height="8.763"></rect>
                <rect id="Rectangle-path" stroke="#30241C" stroke-width="4" x="155.348" y="242" width="8.763" height="8.763"></rect>
                <rect id="Rectangle-path" stroke="#30241C" stroke-width="4" x="173.97" y="242" width="8.764" height="8.763"></rect>
                <rect id="Rectangle-path" stroke="#30241C" stroke-width="4" x="190.766" y="242" width="8.764" height="8.763"></rect>
                <rect id="Rectangle-path" stroke="#30241C" stroke-width="4" x="208.839" y="242" width="8.765" height="8.763"></rect>
                <rect id="Rectangle-path" stroke="#30241C" stroke-width="4" x="225.635" y="242" width="8.764" height="8.763"></rect>
                <rect id="Rectangle-path" stroke="#30241C" stroke-width="4" x="244.258" y="242" width="8.763" height="8.763"></rect>
                <rect id="Rectangle-path" stroke="#30241C" stroke-width="4" x="261.053" y="242" width="8.763" height="8.763"></rect>
                <rect id="Rectangle-path" stroke="#30241C" stroke-width="4" x="278.031" y="242" width="8.763" height="8.763"></rect>
                <rect id="Rectangle-path" stroke="#30241C" stroke-width="4" x="296.654" y="242" width="8.763" height="8.763"></rect>
                <rect id="Rectangle-path" stroke="#30241C" stroke-width="4" x="24.769" y="259.709" width="8.763" height="8.764"></rect>
                <rect id="Rectangle-path" stroke="#30241C" stroke-width="4" x="41.564" y="259.709" width="8.763" height="8.764"></rect>
                <rect id="Rectangle-path" stroke="#30241C" stroke-width="4" x="59.639" y="259.709" width="8.762" height="8.764"></rect>
                <rect id="Rectangle-path" stroke="#30241C" stroke-width="4" x="76.434" y="259.709" width="8.764" height="8.764"></rect>
                <rect id="Rectangle-path" stroke="#30241C" stroke-width="4" x="95.056" y="259.709" width="8.764" height="8.764"></rect>
                <rect id="Rectangle-path" stroke="#30241C" stroke-width="4" x="111.852" y="259.709" width="8.763" height="8.764"></rect>
                <rect id="Rectangle-path" stroke="#30241C" stroke-width="4" x="129.652" y="259.709" width="8.763" height="8.764"></rect>
                <rect id="Rectangle-path" stroke="#30241C" stroke-width="4" x="146.447" y="259.709" width="8.764" height="8.764"></rect>
                <rect id="Rectangle-path" stroke="#30241C" stroke-width="4" x="165.069" y="259.709" width="8.764" height="8.764"></rect>
                <rect id="Rectangle-path" stroke="#30241C" stroke-width="4" x="181.865" y="259.709" width="8.764" height="8.764"></rect>
                <rect id="Rectangle-path" stroke="#30241C" stroke-width="4" x="199.939" y="259.709" width="8.764" height="8.764"></rect>
                <rect id="Rectangle-path" stroke="#30241C" stroke-width="4" x="216.735" y="259.709" width="8.764" height="8.764"></rect>
                <rect id="Rectangle-path" stroke="#30241C" stroke-width="4" x="235.357" y="259.709" width="8.764" height="8.764"></rect>
                <rect id="Rectangle-path" stroke="#30241C" stroke-width="4" x="252.152" y="259.709" width="8.763" height="8.764"></rect>
                <rect id="Rectangle-path" stroke="#30241C" stroke-width="4" x="269.131" y="259.709" width="8.763" height="8.764"></rect>
                <rect id="Rectangle-path" stroke="#30241C" stroke-width="4" x="33.668" y="276.96" width="8.764" height="8.764"></rect>
                <rect id="Rectangle-path" stroke="#30241C" stroke-width="4" x="50.464" y="276.96" width="8.764" height="8.764"></rect>
                <rect id="Rectangle-path" stroke="#30241C" stroke-width="4" x="68.538" y="276.96" width="8.763" height="8.764"></rect>
                <rect id="Rectangle-path" stroke="#30241C" stroke-width="4" x="85.334" y="276.96" width="8.763" height="8.764"></rect>
                <rect id="Rectangle-path" stroke="#30241C" stroke-width="4" x="103.956" y="276.96" width="8.763" height="8.764"></rect>
                <rect id="Rectangle-path" stroke="#30241C" stroke-width="4" x="120.752" y="276.96" width="8.763" height="8.764"></rect>
                <rect id="Rectangle-path" stroke="#30241C" stroke-width="4" x="138.552" y="276.96" width="8.764" height="8.764"></rect>
                <rect id="Rectangle-path" stroke="#30241C" stroke-width="4" x="155.348" y="276.96" width="8.763" height="8.764"></rect>
                <rect id="Rectangle-path" stroke="#30241C" stroke-width="4" x="173.97" y="276.96" width="8.764" height="8.764"></rect>
                <rect id="Rectangle-path" stroke="#30241C" stroke-width="4" x="190.766" y="276.96" width="8.764" height="8.764"></rect>
                <rect id="Rectangle-path" stroke="#30241C" stroke-width="4" x="208.839" y="276.96" width="8.765" height="8.764"></rect>
                <rect id="Rectangle-path" stroke="#30241C" stroke-width="4" x="225.635" y="276.96" width="8.764" height="8.764"></rect>
                <rect id="Rectangle-path" stroke="#30241C" stroke-width="4" x="244.258" y="276.96" width="8.763" height="8.764"></rect>
                <rect id="Rectangle-path" stroke="#30241C" stroke-width="4" x="261.053" y="276.96" width="8.763" height="8.764"></rect>
                <rect id="Rectangle-path" stroke="#30241C" stroke-width="4" x="278.031" y="276.96" width="8.763" height="8.764"></rect>
                <polygon id="Shape" stroke="#30241C" stroke-width="4" points="298.161 259.709 296.654 259.709 287.754 259.709 287.754 268.473 296.654 268.473 296.654 285.724 305.417 285.724 305.417 259.709"></polygon>
                <rect id="Rectangle-path" stroke="#30241C" stroke-width="4" x="24.769" y="294.67" width="8.763" height="8.763"></rect>
                <rect id="Rectangle-path" stroke="#30241C" stroke-width="4" x="41.564" y="294.67" width="8.763" height="8.763"></rect>
                <rect id="Rectangle-path" fill="#E0004D" fill-rule="nonzero" x="59.639" y="294.67" width="165.86" height="8.763"></rect>
                <rect id="Rectangle-path" stroke="#30241C" stroke-width="4" x="235.357" y="294.67" width="8.764" height="8.763"></rect>
                <rect id="Rectangle-path" stroke="#30241C" stroke-width="4" x="252.152" y="294.67" width="8.763" height="8.763"></rect>
                <rect id="Rectangle-path" stroke="#30241C" stroke-width="4" x="269.131" y="294.67" width="8.763" height="8.763"></rect>
                <rect id="Rectangle-path" stroke="#30241C" stroke-width="4" x="287.754" y="294.67" width="8.763" height="8.763"></rect>
                <path d="M144,223.333 L144,215.697 C144,215.697 144,207.729 136.031,207.729 C128.063,207.729 80.253,207.729 80.253,207.729 C80.253,207.729 72.285,207.729 72.285,199.759 C72.285,191.791 80.253,191.791 80.253,191.791 L120.095,191.791 L232.308,191.791 C232.308,191.791 240.635,191.791 240.635,183.822 C240.635,175.854 232.308,175.854 232.308,175.854 L120.095,175.854 C120.095,175.854 112.127,175.854 112.127,167.885 C112.127,159.916 120.095,159.916 120.095,159.916 L160.635,159.916 C160.635,159.916 168.604,159.916 168.604,151.947" id="Shape" stroke="#30241C" stroke-width="4"></path>
                <rect id="Rectangle-path" stroke="#30241C" stroke-width="4" x="0.635" y="139" width="320" height="12.949"></rect>
            </g>
        </g>
    </g>
</svg>