<?xml version="1.0" encoding="UTF-8"?>
<svg width="124px" height="124px" viewBox="0 0 124 124" version="1.1" xmlns="http://www.w3.org/2000/svg" xmlns:xlink="http://www.w3.org/1999/xlink">
    <!-- Generator: Sketch 48.2 (47327) - http://www.bohemiancoding.com/sketch -->
    <title>Artboard</title>
    <desc>Created with Sketch.</desc>
    <defs>
        <polygon id="path-1" points="0.011385452 0.0451557213 62.993425 0.0451557213 62.993425 68.9503303 0.011385452 68.9503303"></polygon>
    </defs>
    <g id="Page-1" stroke="none" stroke-width="1" fill="none" fill-rule="evenodd">
        <g id="Artboard">
            <g id="brand-icon/Red" transform="translate(30.000000, 28.000000)">
                <g id="Coople_C_Icon_Red_RGB">
                    <mask id="mask-2" fill="white">
                        <use xlink:href="#path-1"></use>
                    </mask>
                    <g id="Clip-2"></g>
                    <path d="M4.14525332,41.1068213 C0.48236365,39.3274214 -1.03816347,34.9286117 0.748972985,31.2817676 C2.53591968,27.6349236 6.95385458,26.1207899 10.6167443,27.9001898 C14.2794442,29.6795898 15.7999713,34.0783994 14.0130246,37.7252435 C12.2258881,41.3720875 7.80795324,42.8862212 4.14525332,41.1068213" id="Fill-1" fill="#D22151" mask="url(#mask-2)"></path>
                    <path d="M36.120726,68.9616665 C26.4062789,68.9616665 17.1413673,64.8045061 10.7011864,57.5557847 C10.4028875,57.2198564 10.112938,56.8799604 9.82963,56.535152 C7.8058659,54.0691584 8.17266722,50.4366735 10.6491928,48.4211035 C13.1255286,46.4057224 16.7738069,46.7707469 18.7985198,49.2371184 C18.9875183,49.4676204 19.1812608,49.6943437 19.3787984,49.9167214 C23.6194997,54.6900023 29.7222918,57.4290086 36.120726,57.4290086 C42.5185911,57.4290086 48.6213831,54.6900023 52.8641718,49.9142652 C54.9830044,47.5291363 58.6432375,47.3061917 61.0393059,49.4160408 C63.4349947,51.5262678 63.6587188,55.1704668 61.5398862,57.5557847 C55.0995155,64.8045061 45.834604,68.9616665 36.120726,68.9616665" id="Fill-3" fill="#D22151" mask="url(#mask-2)"></path>
                    <path d="M57.1845713,21.8872993 C55.5048376,21.8872993 53.8387665,21.1636742 52.6939593,19.7666808 C52.5059096,19.5367456 52.3131159,19.3115338 52.1167169,19.0901008 C47.8754462,14.3168198 41.7720849,11.5776246 35.3745994,11.5776246 C28.9773037,11.5776246 22.8739424,14.3168198 18.6302049,19.092368 C16.510803,21.4771191 12.8507597,21.7010083 10.4556401,19.5902145 C8.05995124,17.4799876 7.83603735,13.8357886 9.955629,11.4510375 C16.3963792,4.20231612 25.661101,0.0451557213 35.3745994,0.0451557213 C45.0880978,0.0451557213 54.3530094,4.20231612 60.7937596,11.4510375 C61.0935765,11.7884773 61.384285,12.129129 61.6685418,12.4754489 C63.6904084,14.9431429 63.3209504,18.57525 60.842717,20.5889306 C59.7671713,21.4621932 58.4720762,21.8872993 57.1845713,21.8872993" id="Fill-4" fill="#D22151" mask="url(#mask-2)"></path>
                </g>
            </g>
        </g>
    </g>
</svg>