<?xml version="1.0" encoding="UTF-8"?>
<svg width="273px" height="325px" viewBox="0 0 273 325" version="1.1" xmlns="http://www.w3.org/2000/svg" xmlns:xlink="http://www.w3.org/1999/xlink">
    <!-- Generator: Sketch 48.2 (47327) - http://www.bohemiancoding.com/sketch -->
    <title>03-leader</title>
    <desc>Created with Sketch.</desc>
    <defs></defs>
    <g id="Artboard" stroke="none" stroke-width="1" fill="none" fill-rule="evenodd" transform="translate(-204.000000, -76.000000)">
        <g id="03-leader" transform="translate(204.000000, 76.000000)" fill-rule="nonzero">
            <path d="M48,324.537 L48,260.537 L108.147,215.891 L105.75,213.493 L112.506,200.776 C112.506,200.776 93,228.538 60.25,228.538 C27.5,228.538 27.25,207.788 -1.42108547e-14,196.538 L-1.42108547e-14,324.663 L48,324.537 Z" id="Shape" fill="#63B7EE"></path>
            <path d="M190.027,91.748 C173.137,91.748 160,97.15 160,97.15 C160.001,97.15 146.865,91.748 129.975,91.748 C113.085,91.748 99.948,95.794 99.948,95.794 C99.948,95.794 109.643,122.09 129.975,122.09 C150.305,122.09 160.001,112.705 160.001,112.705 C160,112.705 169.697,122.09 190.027,122.09 C210.359,122.09 220.053,95.794 220.053,95.794 C220.053,95.794 206.918,91.748 190.027,91.748 Z M130.569,111.267 C125.427,110.382 122.06,105.01 122.06,105.01 C122.06,105.01 127.029,101.073 132.169,101.957 C137.312,102.844 140.679,108.215 140.679,108.215 C140.679,108.215 135.71,112.152 130.569,111.267 Z M189.256,111.267 C184.115,112.152 179.146,108.214 179.146,108.214 C179.146,108.214 182.514,102.843 187.655,101.956 C192.797,101.072 197.765,105.009 197.765,105.009 C197.765,105.009 194.398,110.383 189.256,111.267 Z" id="Shape" fill="#E0004D"></path>
            <path d="M105.526,116.582 C99.491,113.614 89.767,101.428 91.794,91.872 C93.705,82.866 99.362,79.433 99.603,79.291 L101.637,82.735 L100.62,81.013 L101.651,82.727 C101.471,82.837 97.234,85.506 95.708,92.702 C94.174,99.934 102.43,110.601 107.292,112.992 L105.526,116.582 Z" id="Shape" fill="#30241C"></path>
            <path d="M214.202,116.582 L212.437,112.992 C217.298,110.602 225.554,99.934 224.02,92.702 C222.495,85.513 218.135,82.761 218.091,82.735 L220.126,79.292 C220.366,79.434 226.022,82.866 227.933,91.873 C229.96,101.428 220.237,113.615 214.202,116.582 Z" id="Shape" fill="#30241C"></path>
            <polygon id="Shape" fill="#63B7EE" points="160 260.537 152.25 260.537 145.764 245.803 159.863 231.582 173.25 246.061 167 260.537"></polygon>
            <polygon id="Shape" fill="#E0004D" points="48 324.537 48 260.537 108.022 215.766 125.772 233.516 160 324.537"></polygon>
            <polygon id="Shape" fill="#E0004D" points="272.723 324.662 272.723 260.662 212.699 215.891 194.949 233.641 160.723 324.662"></polygon>
            <path d="M224,33.787 C219.5,9.037 187.5,11.037 187.5,11.037 C162.5,-12.463 110,5.787 101.75,26.537 C93.5,47.287 97.75,61.287 99.75,75.787 C101.75,90.287 106.408,99.537 106.408,99.537 L106.408,66.085 L106.408,64.935 C106.408,64.935 150.144,72.922 186.189,56.537 C186.189,56.537 199.079,67.645 213.319,66.085 L213.319,100.537 C213.319,100.537 228.5,58.537 224,33.787 Z" id="Shape" fill="#BAC4C6"></path>
            <path d="M159.603,180.789 L159.521,180.786 C158.604,180.748 136.886,179.565 121.384,153.907 C106.22,128.806 104.492,116.909 104.426,116.415 L104.408,116.15 L104.408,62.538 L106.767,62.967 C107.199,63.046 150.327,70.642 185.362,54.717 L186.524,54.189 L187.494,55.022 C187.617,55.127 199.923,65.544 213.102,64.098 L215.32,63.855 L215.302,116.416 C215.236,116.91 213.508,128.807 198.343,153.908 C182.84,179.567 160.622,180.749 159.684,180.787 L159.603,180.789 Z M108.408,115.992 C108.621,117.218 110.923,128.855 124.807,151.838 C138.738,174.894 158.16,176.683 159.601,176.783 C161.025,176.681 181.027,174.829 194.918,151.838 C208.786,128.883 211.1,117.246 211.318,115.991 L211.318,68.225 C199.434,68.546 189.092,61.347 185.885,58.863 C154.302,72.736 117.987,68.693 108.406,67.282 L108.406,115.992 L108.408,115.992 Z" id="Shape" fill="#30241C"></path>
            <rect id="Rectangle-path" fill="#30241C" transform="translate(121.261623, 173.790295) rotate(-88.108980) translate(-121.261623, -173.790295) " x="98.4986078" y="171.790206" width="45.5260315" height="4.0001785"></rect>
            <rect id="Rectangle-path" fill="#30241C" transform="translate(199.357515, 173.799960) rotate(-1.885293) translate(-199.357515, -173.799960) " x="197.357433" y="151.037019" width="4.00016532" height="45.5258815"></rect>
            <path d="M141.935,252.506 L103.29,213.86 L114.44,192.871 L161.863,212.145 L161.863,232.404 L141.935,252.506 Z M108.21,213.124 L141.922,246.837 L157.862,230.758 L157.862,214.838 L116.278,197.937 L108.21,213.124 Z" id="Shape" fill="#30241C"></path>
            <path d="M177.792,252.506 L157.863,232.405 L157.863,212.146 L205.285,192.872 L216.436,213.861 L177.792,252.506 Z M161.863,230.758 L177.803,246.837 L211.515,213.124 L203.446,197.937 L161.863,214.838 L161.863,230.758 Z" id="Shape" fill="#30241C"></path>
            <polygon id="Shape" fill="#91CCF3" points="152.25 260.537 147.967 292.537 160 324.537 160.723 324.662 172.803 292.537 167 260.537"></polygon>
            <path d="M161.008,131.52 C154.838,131.52 152.391,127.497 152.277,127.302 L155.707,125.244 C155.787,125.369 157.721,128.288 163.149,127.319 L163.852,131.257 C162.827,131.439 161.88,131.52 161.008,131.52 Z" id="Shape" fill="#30241C"></path>
            <path d="M159.807,147.564 C148.887,147.564 140.631,143.585 140.115,143.331 L141.882,139.742 C142.055,139.827 159.495,148.177 176.355,139.748 L178.144,143.326 C171.788,146.504 165.443,147.564 159.807,147.564 Z" id="Shape" fill="#30241C"></path>
            <path d="M160.035,155.926 C156.282,155.926 153.515,154.986 153.343,154.926 L154.652,151.146 C154.704,151.164 159.871,152.888 165.118,151.139 L166.383,154.934 C164.152,155.678 161.963,155.926 160.035,155.926 Z" id="Shape" fill="#30241C"></path>
            <path d="M121.133,87.163 L119.867,83.368 C130.227,79.916 139.996,83.234 140.407,83.376 L139.096,87.155 C139.008,87.125 130.16,84.153 121.133,87.163 Z" id="Shape" fill="#30241C"></path>
            <path d="M196.471,87.163 C187.393,84.135 178.598,87.123 178.511,87.155 L177.197,83.377 C177.608,83.234 187.379,79.915 197.737,83.369 L196.471,87.163 Z" id="Shape" fill="#30241C"></path>
            <rect id="Rectangle-path" fill="#30241C" transform="translate(68.875675, 297.370307) rotate(-45.000000) translate(-68.875675, -297.370307) " x="66.8756942" y="291.596363" width="3.99996164" height="11.5478893"></rect>
            <rect id="Rectangle-path" fill="#30241C" transform="translate(85.740470, 264.606194) rotate(-45.008103) translate(-85.740470, -264.606194) " x="83.7404888" y="258.83175" width="3.99996168" height="11.5488894"></rect>
            <rect id="Rectangle-path" fill="#30241C" transform="translate(197.104139, 312.600952) rotate(-45.008103) translate(-197.104139, -312.600952) " x="195.104158" y="306.826507" width="3.99996168" height="11.5488894"></rect>
            <rect id="Rectangle-path" fill="#30241C" transform="translate(212.080151, 249.397058) rotate(-45.000000) translate(-212.080151, -249.397058) " x="210.08017" y="243.622114" width="3.99996164" height="11.5498892"></rect>
            <rect id="Rectangle-path" fill="#30241C" transform="translate(244.081230, 297.358838) rotate(-45.000000) translate(-244.081230, -297.358838) " x="242.08125" y="291.583893" width="3.99996164" height="11.5498892"></rect>
            <rect id="Rectangle-path" fill="#30241C" transform="translate(197.095955, 280.551292) rotate(-45.000000) translate(-197.095955, -280.551292) " x="195.095974" y="274.776848" width="3.99996164" height="11.5488892"></rect>
            <rect id="Rectangle-path" fill="#30241C" transform="translate(116.586094, 296.620992) rotate(-45.008103) translate(-116.586094, -296.620992) " x="114.586113" y="290.846047" width="3.99996168" height="11.5498894"></rect>
            <rect id="Rectangle-path" fill="#30241C" transform="translate(120.502794, 261.747941) rotate(-45.008103) translate(-120.502794, -261.747941) " x="118.502813" y="255.972996" width="3.99996168" height="11.5498894"></rect>
            <rect id="Rectangle-path" fill="#30241C" transform="translate(244.080352, 264.622735) rotate(-45.008103) translate(-244.080352, -264.622735) " x="242.080371" y="258.847791" width="3.99996168" height="11.5498894"></rect>
            <g id="Group" transform="translate(222.000000, 99.000000)" fill="#30241C">
                <path d="M2.938,4.245 C2.482,4.245 2.024,4.09 1.649,3.774 L1.468,3.622 C0.62,2.914 0.508,1.652 1.216,0.805 C1.925,-0.043 3.186,-0.154 4.033,0.553 L4.227,0.717 C5.071,1.429 5.178,2.691 4.466,3.535 C4.072,4.004 3.507,4.245 2.938,4.245 Z" id="Shape"></path>
                <path d="M30.616,122.221 C30.348,122.221 30.077,122.167 29.817,122.054 C28.805,121.612 28.342,120.433 28.784,119.421 L28.991,118.944 C29.429,117.929 30.606,117.463 31.619,117.898 C32.634,118.335 33.102,119.512 32.665,120.526 L32.451,121.022 C32.122,121.773 31.387,122.221 30.616,122.221 Z M37.067,101.599 C36.937,101.599 36.805,101.586 36.673,101.559 C35.59,101.343 34.887,100.289 35.104,99.206 L35.202,98.702 C35.41,97.617 36.457,96.905 37.543,97.114 C38.627,97.322 39.338,98.37 39.131,99.455 L39.026,99.991 C38.836,100.942 38.001,101.599 37.067,101.599 Z M38.985,80.077 C37.893,80.077 37.001,79.2 36.985,78.105 L36.976,77.594 C36.952,76.49 37.827,75.574 38.931,75.55 C40.024,75.525 40.95,76.401 40.975,77.505 L40.985,78.049 C41,79.153 40.117,80.061 39.013,80.077 C39.004,80.077 38.995,80.077 38.985,80.077 Z M36.343,58.637 C35.433,58.637 34.611,58.012 34.396,57.088 L34.279,56.59 C34.021,55.516 34.683,54.436 35.757,54.178 C36.831,53.919 37.911,54.582 38.169,55.656 L38.294,56.185 C38.543,57.261 37.872,58.335 36.796,58.585 C36.645,58.62 36.493,58.637 36.343,58.637 Z M29.206,38.251 C28.459,38.251 27.742,37.831 27.399,37.111 L27.175,36.644 C26.695,35.649 27.111,34.454 28.106,33.973 C29.101,33.492 30.297,33.91 30.777,34.904 L31.01,35.389 C31.486,36.386 31.063,37.579 30.066,38.055 C29.787,38.188 29.494,38.251 29.206,38.251 Z M17.89,19.847 C17.292,19.847 16.7,19.58 16.306,19.07 L15.989,18.662 C15.309,17.791 15.463,16.535 16.333,15.854 C17.204,15.174 18.46,15.328 19.141,16.198 L19.472,16.625 C20.147,17.499 19.986,18.755 19.112,19.43 C18.748,19.711 18.317,19.847 17.89,19.847 Z" id="Shape"></path>
                <path d="M20.067,140.799 C19.66,140.799 19.25,140.675 18.895,140.419 C18,139.771 17.801,138.52 18.449,137.626 L18.579,137.443 C19.215,136.54 20.462,136.324 21.366,136.961 C22.269,137.598 22.485,138.845 21.848,139.748 L21.687,139.973 C21.297,140.512 20.686,140.799 20.067,140.799 Z" id="Shape"></path>
            </g>
            <g id="Group" transform="translate(56.000000, 98.000000)" fill="#30241C">
                <path d="M21.662,142.521 C21.047,142.521 20.44,142.238 20.048,141.704 L19.889,141.486 C19.244,140.59 19.448,139.34 20.345,138.694 C21.241,138.049 22.491,138.252 23.137,139.15 L23.273,139.338 C23.927,140.229 23.734,141.48 22.844,142.133 C22.487,142.395 22.072,142.521 21.662,142.521 Z" id="Shape"></path>
                <path d="M10.884,123.888 C10.116,123.888 9.384,123.444 9.054,122.697 L8.837,122.204 C8.395,121.192 8.858,120.013 9.87,119.571 C10.881,119.128 12.061,119.592 12.503,120.604 L12.712,121.078 C13.159,122.088 12.702,123.269 11.692,123.716 C11.429,123.833 11.154,123.888 10.884,123.888 Z M4.284,103.317 C3.355,103.317 2.523,102.667 2.327,101.721 L2.219,101.187 C2.005,100.103 2.709,99.051 3.793,98.837 C4.881,98.621 5.929,99.327 6.143,100.411 L6.245,100.912 C6.469,101.994 5.773,103.052 4.692,103.275 C4.555,103.303 4.418,103.317 4.284,103.317 Z M2.212,81.812 C2.206,81.812 2.201,81.812 2.195,81.812 C1.091,81.803 0.202,80.9 0.212,79.795 L0.219,79.25 C0.238,78.146 1.159,77.243 2.252,77.284 C3.356,77.302 4.237,78.212 4.218,79.317 L4.212,79.829 C4.202,80.927 3.309,81.812 2.212,81.812 Z M4.701,60.349 C4.555,60.349 4.406,60.333 4.257,60.299 C3.179,60.055 2.504,58.984 2.748,57.906 L2.869,57.378 C3.119,56.302 4.194,55.633 5.27,55.882 C6.346,56.132 7.016,57.207 6.766,58.283 L6.65,58.789 C6.439,59.719 5.614,60.349 4.701,60.349 Z M11.693,39.906 C11.41,39.906 11.123,39.845 10.849,39.718 C9.848,39.251 9.415,38.061 9.882,37.06 L10.11,36.574 C10.581,35.574 11.771,35.147 12.772,35.616 C13.772,36.087 14.2,37.279 13.73,38.278 L13.508,38.751 C13.167,39.479 12.446,39.906 11.693,39.906 Z M22.878,21.42 C22.455,21.42 22.028,21.286 21.666,21.01 C20.788,20.34 20.619,19.085 21.29,18.207 L21.616,17.781 C22.289,16.905 23.546,16.741 24.421,17.415 C25.296,18.089 25.461,19.344 24.787,20.22 L24.47,20.634 C24.076,21.149 23.48,21.42 22.878,21.42 Z" id="Shape"></path>
                <path d="M38.658,4.918 C38.086,4.918 37.518,4.674 37.122,4.201 C36.414,3.353 36.526,2.092 37.374,1.384 L37.562,1.227 C38.408,0.519 39.669,0.631 40.379,1.479 C41.087,2.327 40.975,3.588 40.127,4.296 L39.939,4.453 C39.566,4.765 39.111,4.918 38.658,4.918 Z" id="Shape"></path>
            </g>
        </g>
    </g>
</svg>